HIERARCHY
ROOT joint_Root
{
	OFFSET 0.0 0.0 0.0
	CHANNELS 6 Xposition Yposition Zposition Zrotation Xrotation Yrotation 
	JOINT Hips
	{
		OFFSET 4.5925 91.4895 -427.239
		CHANNELS 6 Xposition Yposition Zposition Zrotation Xrotation Yrotation 
		JOINT Spine
		{
			OFFSET 15.7357 0.0 0.0
			CHANNELS 6 Xposition Yposition Zposition Zrotation Xrotation Yrotation 
			JOINT Chest
			{
				OFFSET 8.98455 -0.406207 0.0
				CHANNELS 6 Xposition Yposition Zposition Zrotation Xrotation Yrotation 
				JOINT Neck
				{
					OFFSET 16.3773 0.0 0.0
					CHANNELS 6 Xposition Yposition Zposition Zrotation Xrotation Yrotation 
					JOINT Head
					{
						OFFSET 6.45672 0.0 0.0
						CHANNELS 6 Xposition Yposition Zposition Zrotation Xrotation Yrotation 
						End Site
						{
							OFFSET 0.0 0.0 0.0
						}
					}
				}
				JOINT Shoulder_L
				{
					OFFSET 12.9942 -0.242716 4.98039
					CHANNELS 6 Xposition Yposition Zposition Zrotation Xrotation Yrotation 
					JOINT UpperArm_L
					{
						OFFSET 5.34809 0.0 0.0
						CHANNELS 6 Xposition Yposition Zposition Zrotation Xrotation Yrotation 
						JOINT LowerArm_L
						{
							OFFSET 24.3286 1.87007e-05 0.0
							CHANNELS 6 Xposition Yposition Zposition Zrotation Xrotation Yrotation 
							JOINT Hand_L
							{
								OFFSET 22.2916 0.0 0.0
								CHANNELS 6 Xposition Yposition Zposition Zrotation Xrotation Yrotation 
								End Site
								{
									OFFSET 0.0 0.0 0.0
								}
							}
						}
					}
				}
				JOINT Shoulder_R
				{
					OFFSET 12.9945 -0.242716 -4.98039
					CHANNELS 6 Xposition Yposition Zposition Zrotation Xrotation Yrotation 
					JOINT UpperArm_R
					{
						OFFSET -5.34813 0.0 0.0
						CHANNELS 6 Xposition Yposition Zposition Zrotation Xrotation Yrotation 
						JOINT LowerArm_R
						{
							OFFSET -24.3289 0.000322201 0.0
							CHANNELS 6 Xposition Yposition Zposition Zrotation Xrotation Yrotation 
							JOINT Hand_R
							{
								OFFSET -22.2915 -0.000108084 0.0
								CHANNELS 6 Xposition Yposition Zposition Zrotation Xrotation Yrotation 
								End Site
								{
									OFFSET 0.0 0.0 0.0
								}
							}
						}
					}
				}
			}
		}
		JOINT UpperLeg_L
		{
			OFFSET -2.19248 -6.46944 0.0
			CHANNELS 6 Xposition Yposition Zposition Zrotation Xrotation Yrotation 
			JOINT LowerLeg_L
			{
				OFFSET 39.0811 0.0 -1.23785e-05
				CHANNELS 6 Xposition Yposition Zposition Zrotation Xrotation Yrotation 
				JOINT Foot_L
				{
					OFFSET 40.9854 0.0 -1.26872e-05
					CHANNELS 6 Xposition Yposition Zposition Zrotation Xrotation Yrotation 
					JOINT Toes_L
					{
						OFFSET 11.7543 0.0 0.0
						CHANNELS 6 Xposition Yposition Zposition Zrotation Xrotation Yrotation 
						End Site
						{
							OFFSET 0.0 0.0 0.0
						}
					}
				}
			}
		}
		JOINT UpperLeg_R
		{
			OFFSET -2.19251 6.46944 0.0
			CHANNELS 6 Xposition Yposition Zposition Zrotation Xrotation Yrotation 
			JOINT LowerLeg_R
			{
				OFFSET -39.0811 -0.00228153 -0.0401928
				CHANNELS 6 Xposition Yposition Zposition Zrotation Xrotation Yrotation 
				JOINT Foot_R
				{
					OFFSET -40.9854 0.0 0.0
					CHANNELS 6 Xposition Yposition Zposition Zrotation Xrotation Yrotation 
					JOINT Toes_R
					{
						OFFSET -11.7543 0.0 0.0
						CHANNELS 6 Xposition Yposition Zposition Zrotation Xrotation Yrotation 
						End Site
						{
							OFFSET 0.0 0.0 0.0
						}
					}
				}
			}
		}
	}
}
MOTION
Frames:	6
Frame Time:	0.0333333
0.000000 0.000000 0.000000 0.000000 0.000000 -0.000000 2.821570 94.678500 -46.337300 93.740200 -13.896800 -11.640100 15.735700 0.000005 -0.000001 140.416000 80.818600 -142.575000 8.984550 -0.406207 -0.000000 4.316560 14.195800 -4.866580 16.377300 -0.000001 -0.000001 1.535620 -3.554980 0.599990 6.456720 -0.000001 -0.000000 -4.719540 -11.871400 3.864430 12.994200 -0.242716 4.980390 -84.051000 -13.462400 -65.888100 5.348090 -0.000007 -0.000001 -72.093900 31.762100 42.079800 24.328600 0.000019 0.000005 15.969200 8.273870 -63.307700 22.291600 -0.000001 0.000005 -8.803590 5.539650 -8.225150 12.994500 -0.242716 -4.980390 90.337900 -2.625020 -82.663200 -5.348130 -0.000001 -0.000004 -58.037400 10.480100 -62.308800 -24.328900 0.000322 -0.000009 -3.320790 2.094020 -122.200000 -22.291500 -0.000108 -0.000004 12.492300 5.511830 -7.016350 -2.192480 -6.469440 -0.000000 175.621000 3.224780 -49.528200 39.081100 -0.000007 -0.000012 0.104999 -0.058804 60.747500 40.985400 -0.000006 -0.000013 8.726420 -2.039990 -63.322400 11.754300 -0.000000 0.000003 -0.002328 -0.032754 -17.908700 -2.192510 6.469440 -0.000001 159.380000 29.539000 -166.993000 -39.081100 -0.002282 -0.040193 0.155776 -0.443422 18.973600 -40.985400 0.000008 0.000006 -7.294990 24.784000 -22.067800 -11.754300 -0.000006 -0.000006 -0.014245 -0.133011 -21.998800
0.000000 0.000000 0.000000 0.000000 0.000000 -0.000000 2.300500 95.470900 -34.711100 91.166400 -15.101100 -12.030700 15.735700 0.000005 -0.000001 145.281000 80.365800 -147.149000 8.984550 -0.406207 -0.000000 3.589730 15.887500 -4.250850 16.377300 -0.000001 -0.000001 1.386220 -3.685210 -0.486016 6.456720 -0.000001 -0.000000 -3.938680 -13.553500 4.357150 12.994200 -0.242716 4.980390 -83.144300 -14.701400 -64.650700 5.348090 -0.000007 -0.000001 -72.843500 29.388000 44.684100 24.328600 0.000019 0.000005 13.189000 5.673980 -67.129600 22.291600 -0.000001 0.000005 -10.211900 5.510270 -6.947420 12.994500 -0.242716 -4.980390 90.399100 -3.251130 -82.996600 -5.348130 -0.000001 -0.000004 -54.274600 11.381500 -62.205300 -24.328900 0.000322 -0.000009 -6.402420 3.818280 -120.697000 -22.291500 -0.000108 -0.000004 13.724700 5.518190 -7.282560 -2.192480 -6.469440 -0.000000 178.253000 0.541191 -43.222900 39.081100 -0.000007 -0.000012 0.037987 -0.049297 37.615600 40.985400 -0.000006 -0.000013 4.841680 3.266490 -66.838200 11.754300 -0.000000 0.000003 -0.002348 -0.033000 -17.918700 -2.192510 6.469440 -0.000001 157.440000 28.708800 -164.828000 -39.081100 -0.002282 -0.040193 0.272716 -0.549694 26.110000 -40.985400 0.000008 0.000006 -2.959660 19.186800 -25.460800 -11.754300 -0.000006 -0.000006 -0.013597 -0.128791 -21.825700
0.000000 0.000000 0.000000 0.000000 0.000000 -0.000000 1.525310 95.062000 -22.615300 87.343800 -16.988600 -10.719300 15.735700 0.000005 -0.000001 147.353000 79.617000 -148.414000 8.984550 -0.406207 -0.000000 3.748660 17.500600 -2.709270 16.377300 -0.000001 -0.000001 1.528980 -3.026680 -0.939865 6.456720 -0.000001 -0.000000 -3.417230 -14.284400 4.757190 12.994200 -0.242716 4.980390 -82.884100 -14.180200 -62.995900 5.348090 -0.000007 -0.000001 -72.257400 27.175200 42.751400 24.328600 0.000019 0.000005 12.939300 5.411540 -67.684000 22.291600 -0.000001 0.000005 -10.966000 5.499080 -6.495790 12.994500 -0.242716 -4.980390 90.333500 -2.997810 -83.650000 -5.348130 -0.000001 -0.000004 -52.041700 15.231600 -59.063300 -24.328900 0.000322 -0.000009 -7.550660 3.839070 -116.796000 -22.291500 -0.000108 -0.000004 14.006900 5.526320 -7.633820 -2.192480 -6.469440 -0.000000 -179.626000 -5.576610 -34.353400 39.081100 -0.000007 -0.000012 -0.004611 0.015791 16.276800 40.985400 -0.000006 -0.000013 1.999770 6.387830 -70.387300 11.754300 -0.000000 0.000003 -0.003728 -0.048593 -18.553300 -2.192510 6.469440 -0.000001 159.823000 19.696700 -162.932000 -39.081100 -0.002282 -0.040193 0.388467 -0.562544 34.400300 -40.985400 0.000008 0.000006 -1.466820 11.105300 -24.066300 -11.754300 -0.000006 -0.000006 -0.012742 -0.123099 -21.592400
0.000000 0.000000 0.000000 0.000000 0.000000 -0.000000 0.859010 93.795700 -10.452400 85.121800 -17.704400 -9.473560 15.735700 0.000005 -0.000001 146.021000 79.548900 -146.794000 8.984550 -0.406207 -0.000000 4.193160 17.331300 -2.192390 16.377300 -0.000001 -0.000001 1.358310 -2.592830 -0.769878 6.456720 -0.000001 -0.000000 -3.011910 -13.548800 5.585820 12.994200 -0.242716 4.980390 -83.797900 -12.225400 -62.834300 5.348090 -0.000007 -0.000001 -71.027300 22.630900 38.576300 24.328600 0.000019 0.000005 16.663200 7.062960 -67.665800 22.291600 -0.000001 0.000005 -9.624920 5.500200 -6.543440 12.994500 -0.242716 -4.980390 90.158700 -1.661240 -84.550000 -5.348130 -0.000001 -0.000004 -51.918300 21.124200 -53.279100 -24.328900 0.000322 -0.000009 -7.034220 2.665550 -110.651000 -22.291500 -0.000108 -0.000004 15.159100 5.537130 -8.096560 -2.192480 -6.469440 -0.000000 178.912000 -13.506100 -30.057100 39.081100 -0.000007 -0.000012 -0.005476 0.048191 6.482150 40.985400 -0.000006 -0.000013 -2.154100 4.536050 -72.319200 11.754300 -0.000000 0.000003 -0.004577 -0.057325 -18.908900 -2.192510 6.469440 -0.000001 164.291000 10.109500 -162.488000 -39.081100 -0.002282 -0.040193 0.485492 -0.479805 45.145300 -40.985400 0.000008 0.000006 0.109630 8.633160 -21.524900 -11.754300 -0.000006 -0.000006 -0.012819 -0.123613 -21.613400
0.000000 0.000000 0.000000 0.000000 0.000000 -0.000000 0.342571 91.563400 1.284770 84.648000 -17.000600 -8.466910 15.735700 0.000005 -0.000001 141.854000 80.228000 -142.830000 8.984550 -0.406207 -0.000000 4.572400 15.371500 -2.576630 16.377300 -0.000001 -0.000001 0.886980 -2.430980 0.335249 6.456720 -0.000001 -0.000000 -2.736400 -11.504300 5.766770 12.994200 -0.242716 4.980390 -86.200800 -8.079970 -64.721300 5.348090 -0.000007 -0.000001 -68.510200 16.201700 34.567100 24.328600 0.000019 0.000005 21.032200 7.877570 -70.379000 22.291600 -0.000001 0.000005 -6.448610 5.507440 -6.829480 12.994500 -0.242716 -4.980390 89.883700 1.371790 -85.146000 -5.348130 -0.000001 -0.000004 -52.470800 27.739300 -45.552800 -24.328900 0.000322 -0.000009 -8.491280 1.788640 -101.831000 -22.291500 -0.000108 -0.000004 18.960300 5.578090 -10.035400 -2.192480 -6.469440 -0.000000 176.891000 -18.242100 -30.260900 39.081100 -0.000007 -0.000012 -0.003114 0.016778 10.512200 40.985400 -0.000006 -0.000013 -2.365210 -0.834004 -75.449500 11.754300 -0.000000 0.000003 -0.004430 -0.055844 -18.848600 -2.192510 6.469440 -0.000001 168.000000 4.231650 -165.529000 -39.081100 -0.002282 -0.040193 0.606887 -0.322341 61.901300 -40.985400 0.000008 0.000006 -2.133150 10.552500 -17.111600 -11.754300 -0.000006 -0.000006 -0.012630 -0.122342 -21.561400
0.000000 0.000000 0.000000 0.000000 0.000000 -0.000000 0.316731 88.550800 11.571400 87.521500 -14.813700 -8.894040 15.735700 0.000005 -0.000001 133.803000 81.830000 -136.021000 8.984550 -0.406207 -0.000000 4.321430 11.359400 -4.873720 16.377300 -0.000001 -0.000001 0.070090 -2.048420 1.553750 6.456720 -0.000001 -0.000000 -3.676940 -8.926640 6.055020 12.994200 -0.242716 4.980390 -89.197500 -1.977320 -67.986700 5.348090 -0.000007 -0.000001 -65.063800 9.392450 29.321300 24.328600 0.000019 0.000005 19.288800 5.586260 -74.469200 22.291600 -0.000001 0.000005 -1.437640 5.521240 -7.386830 12.994500 -0.242716 -4.980390 89.476800 6.247620 -85.203600 -5.348130 -0.000001 -0.000004 -53.640900 32.844600 -35.895200 -24.328900 0.000322 -0.000009 -12.605000 0.148751 -90.705300 -22.291500 -0.000108 -0.000004 21.531500 5.612950 -12.144800 -2.192480 -6.469440 -0.000000 171.685000 -17.391200 -41.920000 39.081100 -0.000007 -0.000012 0.638005 -0.995367 32.661200 40.985400 -0.000006 -0.000013 7.542040 -4.673120 -63.654900 11.754300 -0.000000 0.000003 -0.011140 -0.111976 -21.140500 -2.192510 6.469440 -0.000001 167.407000 3.429110 -175.551000 -39.081100 -0.002282 -0.040193 0.843807 -0.076572 84.800500 -40.985400 0.000008 0.000006 -5.919440 9.380210 -10.347600 -11.754300 -0.000006 -0.000006 -0.012546 -0.121771 -21.538000
